<svg width="107" height="24" viewBox="0 0 107 24" fill="none" xmlns="http://www.w3.org/2000/svg">
<path d="M38.2844 10C38.2844 10.9242 38.0701 11.7727 37.6414 12.5455C37.2128 13.303 36.5546 13.9167 35.6668 14.3864C34.7789 14.8561 33.6768 15.0909 32.3603 15.0909H29.9264V20.8182H26V4.86364H32.3603C33.6462 4.86364 34.733 5.08333 35.6208 5.52273C36.5087 5.96212 37.1746 6.56818 37.6185 7.34091C38.0624 8.11364 38.2844 9 38.2844 10ZM32.0618 12C32.8119 12 33.3706 11.8258 33.738 11.4773C34.1054 11.1288 34.2891 10.6364 34.2891 10C34.2891 9.36364 34.1054 8.87121 33.738 8.52273C33.3706 8.17424 32.8119 8 32.0618 8H29.9264V12H32.0618Z" fill="#262626"/>
<path d="M44.2549 4V20.8182H40.3285V4H44.2549Z" fill="#262626"/>
<path d="M46.3196 14.4545C46.3196 13.1515 46.5645 12.0076 47.0544 11.0227C47.5595 10.0379 48.2407 9.2803 49.0979 8.75C49.9552 8.2197 50.9119 7.95455 51.9681 7.95455C52.8713 7.95455 53.6596 8.13636 54.3331 8.5C55.022 8.86364 55.5501 9.34091 55.9175 9.93182V8.13636H59.8439V20.8182H55.9175V19.0227C55.5348 19.6136 54.999 20.0909 54.3102 20.4545C53.6366 20.8182 52.8483 21 51.9452 21C50.9042 21 49.9552 20.7348 49.0979 20.2045C48.2407 19.6591 47.5595 18.8939 47.0544 17.9091C46.5645 16.9091 46.3196 15.7576 46.3196 14.4545ZM55.9175 14.4773C55.9175 13.5076 55.6419 12.7424 55.0909 12.1818C54.5551 11.6212 53.8969 11.3409 53.1162 11.3409C52.3355 11.3409 51.6696 11.6212 51.1185 12.1818C50.5828 12.7273 50.3149 13.4848 50.3149 14.4545C50.3149 15.4242 50.5828 16.197 51.1185 16.7727C51.6696 17.3333 52.3355 17.6136 53.1162 17.6136C53.8969 17.6136 54.5551 17.3333 55.0909 16.7727C55.6419 16.2121 55.9175 15.447 55.9175 14.4773Z" fill="#262626"/>
<path d="M70.4913 8C71.9915 8 73.1855 8.48485 74.0733 9.45455C74.9765 10.4091 75.4281 11.7273 75.4281 13.4091V20.8182H71.5246V13.9318C71.5246 13.0833 71.3026 12.4242 70.8587 11.9545C70.4148 11.4848 69.8178 11.25 69.0677 11.25C68.3177 11.25 67.7207 11.4848 67.2767 11.9545C66.8328 12.4242 66.6109 13.0833 66.6109 13.9318V20.8182H62.6845V8.13636H66.6109V9.81818C67.0089 9.25758 67.5446 8.81818 68.2182 8.5C68.8917 8.16667 69.6494 8 70.4913 8Z" fill="#262626"/>
<path d="M85.2975 17.5227V20.8182H83.2999C81.8763 20.8182 80.7665 20.4773 79.9705 19.7955C79.1745 19.0985 78.7765 17.9697 78.7765 16.4091V11.3636H77.2151V8.13636H78.7765V5.04545H82.7029V8.13636H85.2746V11.3636H82.7029V16.4545C82.7029 16.8333 82.7947 17.1061 82.9784 17.2727C83.1621 17.4394 83.4683 17.5227 83.8969 17.5227H85.2975Z" fill="#262626"/>
<path d="M91.411 4.86364V20.8182H87.4846V4.86364H91.411Z" fill="#262626"/>
<path d="M102.063 8C103.563 8 104.757 8.48485 105.645 9.45455C106.548 10.4091 107 11.7273 107 13.4091V20.8182H103.097V13.9318C103.097 13.0833 102.875 12.4242 102.431 11.9545C101.987 11.4848 101.39 11.25 100.64 11.25C99.8896 11.25 99.2926 11.4848 98.8487 11.9545C98.4048 12.4242 98.1828 13.0833 98.1828 13.9318V20.8182H94.2564V8.13636H98.1828V9.81818C98.5808 9.25758 99.1166 8.81818 99.7901 8.5C100.464 8.16667 101.221 8 102.063 8Z" fill="#262626"/>
<path d="M9.00006 0C11.3011 1.33575 12.8418 3.34385 13.6222 5.57997C11.6364 6.54881 10.0097 8.15628 9.00006 10.1403C7.99043 8.15628 6.36374 6.54881 4.37791 5.57997C5.15831 3.34385 6.69903 1.33575 9.00006 0Z" fill="#04BF94"/>
<path d="M0 5.71429C4.97056 5.71429 9 9.80768 9 14.8571C9 9.80768 13.0294 5.71429 18 5.71429V14.8571C18 19.9066 13.9706 24 9 24C4.02944 24 0 19.9066 0 14.8571V5.71429Z" fill="#04BF94"/>
</svg>
